<svg id="Capa_1" enable-background="new 0 0 512 512" height="512" viewBox="0 0 512 512" width="512" xmlns="http://www.w3.org/2000/svg"><g><g><g><path d="m512 72.638v366.724c0 5.687-4.615 10.302-10.302 10.302h-491.396c-5.687 0-10.302-4.615-10.302-10.302v-366.724c0-5.687 4.615-10.302 10.302-10.302h491.396c5.687 0 10.302 4.615 10.302 10.302z" fill="#e8e6ed"/><path d="m512 72.638v366.724c0 5.687-4.615 10.302-10.302 10.302h-123.395c113.979-98.66 111.445-328.061 108.756-387.327h14.639c5.687-.001 10.302 4.614 10.302 10.301z" fill="#d1d0d8"/><path d="m512 72.638v54.631h-512v-54.631c0-5.687 4.615-10.302 10.302-10.302h491.396c5.687 0 10.302 4.615 10.302 10.302z" fill="#ff5677"/><path d="m512 72.638v54.631h-24.549c.845-28.289.237-51.19-.391-64.932h14.639c5.686-.001 10.301 4.614 10.301 10.301z" fill="#ff2953"/><g fill="#be224e"><path d="m41.255 102.531h-.117c-4.268 0-7.726-3.459-7.726-7.726s3.459-7.726 7.726-7.726h.117c4.268 0 7.726 3.459 7.726 7.726 0 4.266-3.459 7.726-7.726 7.726z"/><path d="m64.58 102.531h-.116c-4.268 0-7.726-3.459-7.726-7.726s3.459-7.726 7.726-7.726h.116c4.268 0 7.726 3.459 7.726 7.726.001 4.266-3.458 7.726-7.726 7.726z"/><path d="m87.907 102.531h-.116c-4.268 0-7.726-3.459-7.726-7.726s3.459-7.726 7.726-7.726h.116c4.268 0 7.726 3.459 7.726 7.726.001 4.266-3.458 7.726-7.726 7.726z"/><path d="m470.862 102.531h-14.377c-4.268 0-7.726-3.459-7.726-7.726s3.459-7.726 7.726-7.726h14.377c4.268 0 7.726 3.459 7.726 7.726.001 4.266-3.458 7.726-7.726 7.726z"/></g></g><path d="m427.69 179.952v218.398c0 5.687-4.615 10.302-10.302 10.302h-322.776c-5.687 0-10.302-4.615-10.302-10.302v-218.398c0-5.687 4.615-10.302 10.302-10.302h322.776c5.687 0 10.302 4.615 10.302 10.302z" fill="#898993"/><path d="m427.69 179.952v218.398c0 5.687-4.615 10.302-10.302 10.302h-76.759c45.647-67.734 62.594-164.53 68.332-239.002h8.427c5.687 0 10.302 4.615 10.302 10.302z" fill="#717177"/><path d="m427.69 179.952v63.181h-343.38v-63.181c0-5.687 4.615-10.302 10.302-10.302h322.776c5.687 0 10.302 4.615 10.302 10.302z" fill="#ff5677"/><path d="m427.69 179.952v63.181h-27.825c4.461-25.445 7.314-50.386 9.096-73.483h8.427c5.687 0 10.302 4.615 10.302 10.302z" fill="#ff2953"/><path d="m389.23 206.395 4.064-4.064c3.017-3.017 3.017-7.909 0-10.927-3.018-3.017-7.909-3.017-10.928 0l-4.063 4.063-4.063-4.063c-3.018-3.017-7.909-3.017-10.928 0-3.017 3.017-3.017 7.909 0 10.927l4.064 4.064-4.064 4.064c-3.017 3.017-3.017 7.909 0 10.927 1.509 1.509 3.487 2.263 5.464 2.263s3.955-.755 5.464-2.263l4.063-4.063 4.063 4.063c1.509 1.509 3.487 2.263 5.464 2.263s3.955-.755 5.464-2.263c3.017-3.017 3.017-7.909 0-10.927z" fill="#e8e6ed"/><path d="m169.98 285.704h-37.087c-4.268 0-7.726-3.459-7.726-7.726s3.459-7.726 7.726-7.726h37.087c4.268 0 7.726 3.459 7.726 7.726 0 4.266-3.459 7.726-7.726 7.726z" fill="#ff5677"/><g fill="#e8e6ed"><path d="m382.712 320.304c.01 2.545-1.205 4.811-3.101 6.222-1.277.968-2.874 1.535-4.595 1.545l-242.093 1.03h-.031c-4.255 0-7.706-3.441-7.726-7.695-.021-4.275 3.431-7.747 7.695-7.757l242.093-1.03h.031c3.451 0 6.366 2.256 7.356 5.378.237.731.371 1.503.371 2.307z"/><path d="m382.712 344.544c.021 4.265-3.431 7.737-7.695 7.757l-4.904.021-237.189 1.01h-.031c-4.255 0-7.706-3.441-7.726-7.695-.021-4.265 3.431-7.737 7.695-7.757l242.093-1.03h.031c.35 0 .69.021 1.03.072 3.77.493 6.676 3.707 6.696 7.622z"/><path d="m382.712 368.774c.021 4.265-3.431 7.737-7.695 7.757l-15.844.072-226.248.958h-.031c-4.255 0-7.706-3.441-7.726-7.695-.021-4.265 3.431-7.737 7.695-7.757l233.542-.989 8.551-.041h.031c4.253-.001 7.705 3.44 7.725 7.695z"/></g></g><g fill="#d1d0d8"><path d="m379.611 326.526c.937-2.833 1.854-5.676 2.73-8.53.237.732.371 1.504.371 2.308.011 2.544-1.205 4.811-3.101 6.222z"/><path d="m382.712 344.544c.021 4.265-3.431 7.737-7.695 7.757l-4.904.021c2.071-5.079 4.028-10.209 5.903-15.401 3.77.494 6.676 3.708 6.696 7.623z"/><path d="m382.712 368.774c.021 4.265-3.431 7.737-7.695 7.757l-15.844.072c2.534-5.069 4.935-10.23 7.232-15.484l8.551-.041h.031c4.253 0 7.705 3.441 7.725 7.696z"/></g></g></svg>